<svg viewBox="0 0 400 400" fill="none" xmlns="http://www.w3.org/2000/svg">
<g clip-path="url(#clip0_1_2)">
<circle cx="176.14" cy="101.719" r="75.2193" stroke="black" stroke-width="25"/>
<path d="M338.377 352.246C338.377 363.928 337.13 370.232 335.83 373.256C335.746 373.45 335.668 373.617 335.597 373.759C334.27 373.519 331.566 372.671 326.976 370.126C321.401 367.036 314.767 362.453 306.824 356.701C304.442 354.977 301.961 353.16 299.387 351.275C285.226 340.904 268.266 328.483 249.793 318.231C227.882 306.07 202.643 296.237 175.439 296.237C148.234 296.237 122.996 306.07 101.084 318.231C82.6107 328.483 65.651 340.904 51.49 351.275C48.9162 353.16 46.4349 354.977 44.0537 356.701C36.11 362.453 29.4759 367.036 23.9016 370.126C19.3111 372.671 16.6074 373.519 15.2799 373.759C15.2088 373.617 15.1308 373.45 15.0473 373.256C13.7467 370.232 12.5 363.928 12.5 352.246C12.5 262.257 85.4501 189.307 175.439 189.307C265.427 189.307 338.377 262.257 338.377 352.246ZM15.7177 374.484C15.7176 374.484 15.7153 374.481 15.711 374.476C15.7155 374.481 15.7177 374.484 15.7177 374.484Z" stroke="black" stroke-width="25"/>
<rect x="322.807" y="72.9474" width="14.0351" height="140.351" rx="7.01754" fill="black"/>
<rect x="259.649" y="150.14" width="14.0351" height="140.351" rx="7.01754" transform="rotate(-90 259.649 150.14)" fill="black"/>
</g>
<defs>
<clipPath id="clip0_1_2">
<rect width="400" height="400" fill="white"/>
</clipPath>
</defs>
</svg>
