<svg viewBox="0 0 400 400" fill="none" xmlns="http://www.w3.org/2000/svg">
<g clip-path="url(#clip0_1_2)">
<circle cx="200" cy="200" r="189" stroke="black" stroke-width="22"/>
<circle cx="200.5" cy="120.5" r="57" stroke="black" stroke-width="11"/>
<path d="M319.5 299C319.5 307.44 318.617 312.504 317.408 315.316C316.837 316.644 316.305 317.2 316.011 317.427C315.771 317.613 315.472 317.758 314.891 317.788C313.371 317.867 310.669 317.131 306.319 314.719C302.148 312.407 297.272 309.031 291.614 304.934C289.893 303.688 288.108 302.38 286.263 301.03C276.168 293.637 264.282 284.934 251.325 277.743C235.964 269.218 218.571 262.5 200 262.5C181.429 262.5 164.036 269.218 148.675 277.743C135.718 284.934 123.832 293.637 113.737 301.03C111.892 302.38 110.107 303.688 108.386 304.934C102.728 309.031 97.8523 312.407 93.6814 314.719C89.3309 317.131 86.6287 317.867 85.1095 317.788C84.528 317.758 84.2287 317.613 83.9887 317.427C83.6949 317.2 83.1633 316.644 82.5921 315.316C81.383 312.504 80.5 307.44 80.5 299C80.5 233.002 134.002 179.5 200 179.5C265.998 179.5 319.5 233.002 319.5 299Z" stroke="black" stroke-width="11"/>
<rect x="305" y="100" width="10" height="100" rx="5" fill="black"/>
<rect x="260" y="155" width="10" height="100" rx="5" transform="rotate(-90 260 155)" fill="black"/>
</g>
<defs>
<clipPath id="clip0_1_2">
<rect width="400" height="400" fill="white"/>
</clipPath>
</defs>
</svg>
