<svg width="45" height="45" viewBox="0 0 45 45" fill="none" xmlns="http://www.w3.org/2000/svg">
<path d="M0.5 6.67378H44.5V35C44.5 40.2467 40.2467 44.5 35 44.5H10C4.75329 44.5 0.5 40.2467 0.5 35V6.67378Z" stroke="white"/>
<path d="M0 6.17378C0 2.76409 2.7641 0 6.17378 0H38.8262C42.2359 0 45 2.76409 45 6.17378V6.17378H0V6.17378Z" fill="white"/>
<path d="M5.51257 11.2019C5.51257 10.6497 5.96029 10.2019 6.51257 10.2019H11.7022C12.2545 10.2019 12.7022 10.6497 12.7022 11.2019V17.6707C12.7022 18.223 12.2545 18.6707 11.7022 18.6707H6.51257C5.96029 18.6707 5.51257 18.223 5.51257 17.6707V11.2019Z" fill="white"/>
<path d="M18.8898 11.2019C18.8898 10.6497 19.3375 10.2019 19.8898 10.2019H25.0794C25.6317 10.2019 26.0794 10.6497 26.0794 11.2019V17.6707C26.0794 18.223 25.6317 18.6707 25.0794 18.6707H19.8898C19.3375 18.6707 18.8898 18.223 18.8898 17.6707V11.2019Z" fill="white"/>
<path d="M32.2668 11.2019C32.2668 10.6497 32.7146 10.2019 33.2668 10.2019H38.4565C39.0088 10.2019 39.4565 10.6497 39.4565 11.2019V17.6707C39.4565 18.223 39.0088 18.6707 38.4565 18.6707H33.2668C32.7146 18.6707 32.2668 18.223 32.2668 17.6707V11.2019Z" fill="white"/>
<path d="M5.51257 22.3525C5.51257 21.8002 5.96029 21.3525 6.51257 21.3525H11.7022C12.2545 21.3525 12.7022 21.8002 12.7022 22.3525V28.8213C12.7022 29.3736 12.2545 29.8213 11.7022 29.8213H6.51257C5.96029 29.8213 5.51257 29.3736 5.51257 28.8213V22.3525Z" fill="white"/>
<path d="M18.8898 22.3525C18.8898 21.8002 19.3375 21.3525 19.8898 21.3525H25.0794C25.6317 21.3525 26.0794 21.8002 26.0794 22.3525V28.8213C26.0794 29.3736 25.6317 29.8213 25.0794 29.8213H19.8898C19.3375 29.8213 18.8898 29.3736 18.8898 28.8213V22.3525Z" fill="white"/>
<path d="M32.2668 22.3525C32.2668 21.8002 32.7146 21.3525 33.2668 21.3525H38.4565C39.0088 21.3525 39.4565 21.8002 39.4565 22.3525V28.8213C39.4565 29.3736 39.0088 29.8213 38.4565 29.8213H33.2668C32.7146 29.8213 32.2668 29.3736 32.2668 28.8213V22.3525Z" fill="white"/>
<path d="M5.51257 33.5031C5.51257 32.9508 5.96029 32.5031 6.51257 32.5031H11.7022C12.2545 32.5031 12.7022 32.9508 12.7022 33.5031V39.9719C12.7022 40.5241 12.2545 40.9719 11.7022 40.9719H6.51257C5.96029 40.9719 5.51257 40.5241 5.51257 39.9719V33.5031Z" fill="white"/>
<path d="M18.8898 33.5031C18.8898 32.9508 19.3375 32.5031 19.8898 32.5031H25.0794C25.6317 32.5031 26.0794 32.9508 26.0794 33.5031V39.9719C26.0794 40.5242 25.6317 40.9719 25.0794 40.9719H19.8898C19.3375 40.9719 18.8898 40.5242 18.8898 39.9719V33.5031Z" fill="white"/>
<path d="M32.2668 33.5031C32.2668 32.9508 32.7146 32.5031 33.2668 32.5031H38.4565C39.0088 32.5031 39.4565 32.9508 39.4565 33.5031V39.9719C39.4565 40.5242 39.0088 40.9719 38.4565 40.9719H33.2668C32.7146 40.9719 32.2668 40.5242 32.2668 39.9719V33.5031Z" fill="white"/>
</svg>
