<svg width="42" viewBox="0 0 400 400" fill="none" xmlns="http://www.w3.org/2000/svg">
<g clip-path="url(#clip0_1_2)">
<path d="M5 59.8781H395V370C395 383.807 383.807 395 370 395H30C16.1929 395 5 383.807 5 370V59.8781Z" stroke="white" stroke-width="10"/>
<path d="M0 40C0 17.9086 17.9086 0 40 0H360C382.091 0 400 17.9086 400 40V54.878H0V40Z" fill="white"/>
<g clip-path="url(#clip1_1_2)">
<rect x="73" y="100" width="65" height="65" fill="white"/>
<rect x="168" y="100" width="65" height="65" fill="white"/>
<rect x="263" y="100" width="65" height="65" fill="white"/>
</g>
<g clip-path="url(#clip2_1_2)">
<rect x="73" y="195" width="65" height="65" fill="white"/>
<rect x="168" y="195" width="65" height="65" fill="white"/>
<rect x="263" y="195" width="65" height="65" fill="white"/>
</g>
<g clip-path="url(#clip3_1_2)">
<rect x="73" y="290" width="65" height="65" fill="white"/>
<rect x="168" y="290" width="65" height="65" fill="white"/>
<rect x="263" y="290" width="65" height="65" fill="white"/>
</g>
</g>
<defs>
<clipPath id="clip0_1_2">
<rect width="400" height="400" fill="white"/>
</clipPath>
<clipPath id="clip1_1_2">
<rect width="255" height="65" fill="white" transform="translate(73 100)"/>
</clipPath>
<clipPath id="clip2_1_2">
<rect width="255" height="65" fill="white" transform="translate(73 195)"/>
</clipPath>
<clipPath id="clip3_1_2">
<rect width="255" height="65" fill="white" transform="translate(73 290)"/>
</clipPath>
</defs>
</svg>
