<svg  viewBox="0 0 800 677" fill="none" xmlns="http://www.w3.org/2000/svg">
<path fill-rule="evenodd" clip-rule="evenodd" d="M682 575C754.881 538.774 800 490.442 800 435C800 379.558 754.881 331.226 682 295C673.047 290.55 663.674 285.745 653.915 280.743C584.848 245.337 496.407 200 400 200C303.593 200 215.152 245.337 146.085 280.743C136.326 285.745 126.953 290.55 118 295C45.1192 331.226 0 379.558 0 435C0 490.442 45.1192 538.774 118 575C130.856 581.39 144.575 588.731 159.063 596.484C226.076 632.343 309.53 677 400 677C490.47 677 573.924 632.343 640.937 596.484C655.425 588.731 669.144 581.39 682 575ZM400 639C538.071 639 650 549.457 650 439C650 328.543 538.071 239 400 239C261.929 239 150 328.543 150 439C150 549.457 261.929 639 400 639Z" fill="black"/>
<circle cx="400.425" cy="438.245" r="150" fill="black"/>
<path d="M80.25 169L75.9 154.45H39.75L35.4 169H1.5L39.15 65.8H77.7L115.35 169H80.25ZM46.65 131.35H69L58.2 94.6H57.6L46.65 131.35Z" fill="black"/>
<path d="M275.749 97.45C275.749 103.75 274.049 109.45 270.649 114.55C267.249 119.65 262.299 123.4 255.799 125.8L278.749 169H241.549L223.249 131.35H210.949V169H177.799V65.8H240.949C248.349 65.8 254.649 67.25 259.849 70.15C265.149 72.95 269.099 76.8 271.699 81.7C274.399 86.5 275.749 91.75 275.749 97.45ZM241.999 98.8C241.999 96.1 241.099 93.85 239.299 92.05C237.499 90.25 235.299 89.35 232.699 89.35H210.949V108.4H232.699C235.299 108.4 237.499 107.5 239.299 105.7C241.099 103.8 241.999 101.5 241.999 98.8Z" fill="black"/>
<path d="M396.398 64C406.298 64 415.198 65.5 423.098 68.5C430.998 71.5 437.248 75.95 441.848 81.85C446.548 87.65 448.898 94.75 448.898 103.15H417.248C417.248 98.85 415.348 95.4 411.548 92.8C407.748 90.1 403.148 88.75 397.748 88.75C389.948 88.75 384.048 90.85 380.048 95.05C376.048 99.15 374.048 105 374.048 112.6V122.2C374.048 129.8 376.048 135.7 380.048 139.9C384.048 144 389.948 146.05 397.748 146.05C403.148 146.05 407.748 144.8 411.548 142.3C415.348 139.7 417.248 136.4 417.248 132.4H393.848V111.4H448.898V169H431.798L428.498 158.8C419.098 166.8 406.798 170.8 391.598 170.8C374.498 170.8 361.648 166.35 353.048 157.45C344.448 148.45 340.148 135.1 340.148 117.4C340.148 99.9 344.998 86.65 354.698 77.65C364.498 68.55 378.398 64 396.398 64Z" fill="black"/>
<path d="M622.151 127.45C622.151 141.55 617.701 152.3 608.801 159.7C599.901 167.1 587.251 170.8 570.851 170.8C554.451 170.8 541.751 167.1 532.751 159.7C523.851 152.3 519.401 141.55 519.401 127.45V65.8H552.551V127C552.551 132.8 554.101 137.45 557.201 140.95C560.301 144.35 564.801 146.05 570.701 146.05C576.601 146.05 581.101 144.3 584.201 140.8C587.401 137.3 589.001 132.7 589.001 127V65.8H622.151V127.45Z" fill="black"/>
<path d="M737.653 64C750.853 64 761.703 66.7 770.203 72.1C778.703 77.4 783.053 85.3 783.253 95.8V97.6H752.203V97C752.203 94 751.103 91.5 748.903 89.5C746.703 87.5 743.353 86.5 738.853 86.5C734.453 86.5 731.053 87.15 728.653 88.45C726.353 89.75 725.203 91.35 725.203 93.25C725.203 95.95 726.803 97.95 730.003 99.25C733.203 100.55 738.353 101.9 745.453 103.3C753.753 105 760.553 106.8 765.853 108.7C771.253 110.5 775.953 113.5 779.953 117.7C783.953 121.9 786.003 127.6 786.103 134.8C786.103 147 781.953 156.05 773.653 161.95C765.453 167.85 754.453 170.8 740.653 170.8C724.553 170.8 712.003 168.1 703.003 162.7C694.103 157.3 689.653 147.75 689.653 134.05H721.003C721.003 139.25 722.353 142.75 725.053 144.55C727.753 146.25 731.953 147.1 737.653 147.1C741.853 147.1 745.303 146.65 748.003 145.75C750.803 144.85 752.203 143 752.203 140.2C752.203 137.7 750.653 135.85 747.553 134.65C744.553 133.35 739.603 132 732.703 130.6C724.303 128.8 717.353 126.95 711.853 125.05C706.353 123.05 701.553 119.8 697.453 115.3C693.353 110.8 691.303 104.7 691.303 97C691.303 85.7 695.653 77.4 704.353 72.1C713.153 66.7 724.253 64 737.653 64Z" fill="black"/>
</svg>
