<svg viewBox="0 0 400 400" fill="none" xmlns="http://www.w3.org/2000/svg">
<path fill-rule="evenodd" clip-rule="evenodd" d="M341 270C377.44 251.887 400 227.721 400 200C400 172.279 377.44 148.113 341 130C336.523 127.775 331.837 125.373 326.958 122.871C292.424 105.168 248.203 82.5 200 82.5C151.797 82.5 107.576 105.168 73.0423 122.871C68.1628 125.373 63.4767 127.775 59 130C22.5596 148.113 0 172.279 0 200C0 227.721 22.5596 251.887 59 270C65.4278 273.195 72.2876 276.866 79.5316 280.742C113.038 298.671 154.765 321 200 321C245.235 321 286.962 298.671 320.468 280.742C327.712 276.866 334.572 273.195 341 270ZM200 302C269.036 302 325 257.228 325 202C325 146.772 269.036 102 200 102C130.964 102 75 146.772 75 202C75 257.228 130.964 302 200 302Z" fill="black"/>
<circle cx="200" cy="202" r="75" fill="black"/>
</svg>
