<svg viewBox="0 0 671 400" fill="none" xmlns="http://www.w3.org/2000/svg">
<path fill-rule="evenodd" clip-rule="evenodd" d="M571.908 314.465C633.024 284.088 670.86 243.558 670.86 197.065C670.86 150.572 633.024 110.042 571.908 79.6646C564.4 75.9327 556.54 71.9038 548.357 67.7087C490.439 38.0184 416.274 0 335.43 0C254.585 0 180.421 38.0184 122.503 67.7086C114.319 71.9038 106.46 75.9327 98.9518 79.6646C37.8358 110.042 0 150.572 0 197.065C0 243.558 37.8358 284.088 98.9518 314.465C109.732 319.824 121.237 325.98 133.386 332.481C189.581 362.552 259.564 400 335.43 400C411.295 400 481.278 362.552 537.473 332.481C549.623 325.98 561.127 319.824 571.908 314.465ZM335.43 368.134C451.213 368.134 545.073 293.046 545.073 200.419C545.073 107.793 451.213 32.7044 335.43 32.7044C219.647 32.7044 125.786 107.793 125.786 200.419C125.786 293.046 219.647 368.134 335.43 368.134Z" fill="black"/>
<circle cx="335.43" cy="200.419" r="125.786" fill="black"/>
</svg>
