<svg width="51" height="45" viewBox="0 0 51 45" fill="none" xmlns="http://www.w3.org/2000/svg">
<path fill-rule="evenodd" clip-rule="evenodd" d="M43.6085 33.9465C48.1636 30.9088 50.9835 26.8558 50.9835 22.2065C50.9835 17.5572 48.1636 13.5042 43.6085 10.4665C43.0489 10.0933 42.4632 9.69038 41.8532 9.27087C37.5365 6.30184 32.009 2.5 25.9835 2.5C19.9581 2.5 14.4305 6.30184 10.1138 9.27087C9.50387 9.69038 8.9181 10.0933 8.35852 10.4665C3.80347 13.5042 0.983521 17.5572 0.983521 22.2065C0.983521 26.8558 3.80347 30.9088 8.35852 33.9465C9.162 34.4824 10.0195 35.098 10.925 35.7481C15.1133 38.7552 20.3292 42.5 25.9835 42.5C31.6379 42.5 36.8538 38.7552 41.0421 35.7481C41.9476 35.098 42.805 34.4824 43.6085 33.9465ZM25.9835 39.3134C34.613 39.3134 41.6085 31.8046 41.6085 22.5419C41.6085 13.2793 34.613 5.77044 25.9835 5.77044C17.3541 5.77044 10.3585 13.2793 10.3585 22.5419C10.3585 31.8046 17.3541 39.3134 25.9835 39.3134Z" fill="white"/>
<path fill-rule="evenodd" clip-rule="evenodd" d="M26 36.2778C31.2467 36.2778 35.5 30.3082 35.5 22.9444C35.5 15.5807 31.2467 9.61111 26 9.61111C20.7533 9.61111 16.5 15.5807 16.5 22.9444C16.5 30.3082 20.7533 36.2778 26 36.2778ZM26 32.3012C29.5899 32.3012 32.5 28.2167 32.5 23.1784C32.5 18.14 29.5899 14.0556 26 14.0556C22.4101 14.0556 19.5 18.14 19.5 23.1784C19.5 28.2167 22.4101 32.3012 26 32.3012Z" fill="white"/>
</svg>
