<svg viewBox="0 0 600 100" fill="none" xmlns="http://www.w3.org/2000/svg">
<path d="M5.55 23.4H47.25V35.775H22.125V44.625H43.725V56.475H22.125V75H5.55V23.4ZM115.125 75L112.95 67.725H94.875L92.7 75H75.75L94.575 23.4H113.85L132.675 75H115.125ZM98.325 56.175H109.5L104.1 37.8H103.8L98.325 56.175ZM208.225 75V56.4C208.225 54.1 208.3 51.75 208.45 49.35C208.65 46.9 208.85 44.85 209.05 43.2C209.25 41.55 209.375 40.5 209.425 40.05H209.125L199.6 75H186.625L177.025 40.125H176.725C176.775 40.575 176.9 41.625 177.1 43.275C177.35 44.875 177.575 46.9 177.775 49.35C177.975 51.75 178.075 54.1 178.075 56.4V75H162.85V23.4H186.25L194.05 53.175H194.35L202.075 23.4H224.65V75H208.225ZM260.45 75V23.4H277.025V75H260.45ZM313.826 23.4H330.401V61.8H356.876V75H313.826V23.4ZM420.851 75H404.276V54.975L383.801 23.4H402.851L412.751 40.575H413.051L422.951 23.4H441.026L420.851 54.975V75Z" fill="white"/>
</svg>
