<svg viewBox="0 0 400 400" fill="none" xmlns="http://www.w3.org/2000/svg">
<g clip-path="url(#clip0_1_2)">
<path fill-rule="evenodd" clip-rule="evenodd" d="M266.667 400H400V266.667H366.667V366.667H266.667V400ZM33.3333 266.667V366.667H133.333V400H0V266.667H33.3333ZM133.333 33.3333H33.3333V133.333H0V0H133.333V33.3333ZM266.667 33.3333V0H400V133.333H366.667V33.3333H266.667Z" fill="black"/>
<path fill-rule="evenodd" clip-rule="evenodd" d="M200 300C255.228 300 300 255.228 300 200C300 144.772 255.228 100 200 100C144.772 100 100 144.772 100 200C100 255.228 144.772 300 200 300ZM200 266.667C236.819 266.667 266.667 236.819 266.667 200C266.667 163.181 236.819 133.333 200 133.333C163.181 133.333 133.333 163.181 133.333 200C133.333 236.819 163.181 266.667 200 266.667Z" fill="black"/>
</g>
<defs>
<clipPath id="clip0_1_2">
<rect width="400" height="400" fill="white"/>
</clipPath>
</defs>
</svg>
