<svg  viewBox="0 0 859 317" fill="none" xmlns="http://www.w3.org/2000/svg">
<g clip-path="url(#clip0_8_2)">
<rect x="437" width="6" height="317" fill="white"/>
<path d="M42.125 183L39.95 175.725H21.875L19.7 183H2.75L21.575 131.4H40.85L59.675 183H42.125ZM25.325 164.175H36.5L31.1 145.8H30.8L25.325 164.175ZM139.875 147.225C139.875 150.375 139.025 153.225 137.325 155.775C135.625 158.325 133.15 160.2 129.9 161.4L141.375 183H122.775L113.625 164.175H107.475V183H90.8996V131.4H122.475C126.175 131.4 129.325 132.125 131.925 133.575C134.575 134.975 136.55 136.9 137.85 139.35C139.2 141.75 139.875 144.375 139.875 147.225ZM123 147.9C123 146.55 122.55 145.425 121.65 144.525C120.75 143.625 119.65 143.175 118.35 143.175H107.475V152.7H118.35C119.65 152.7 120.75 152.25 121.65 151.35C122.55 150.4 123 149.25 123 147.9ZM200.199 130.5C205.149 130.5 209.599 131.25 213.549 132.75C217.499 134.25 220.624 136.475 222.924 139.425C225.274 142.325 226.449 145.875 226.449 150.075H210.624C210.624 147.925 209.674 146.2 207.774 144.9C205.874 143.55 203.574 142.875 200.874 142.875C196.974 142.875 194.024 143.925 192.024 146.025C190.024 148.075 189.024 151 189.024 154.8V159.6C189.024 163.4 190.024 166.35 192.024 168.45C194.024 170.5 196.974 171.525 200.874 171.525C203.574 171.525 205.874 170.9 207.774 169.65C209.674 168.35 210.624 166.7 210.624 164.7H198.924V154.2H226.449V183H217.899L216.249 177.9C211.549 181.9 205.399 183.9 197.799 183.9C189.249 183.9 182.824 181.675 178.524 177.225C174.224 172.725 172.074 166.05 172.074 157.2C172.074 148.45 174.499 141.825 179.349 137.325C184.249 132.775 191.199 130.5 200.199 130.5ZM313.075 162.225C313.075 169.275 310.85 174.65 306.4 178.35C301.95 182.05 295.625 183.9 287.425 183.9C279.225 183.9 272.875 182.05 268.375 178.35C263.925 174.65 261.7 169.275 261.7 162.225V131.4H278.275V162C278.275 164.9 279.05 167.225 280.6 168.975C282.15 170.675 284.4 171.525 287.35 171.525C290.3 171.525 292.55 170.65 294.1 168.9C295.7 167.15 296.5 164.85 296.5 162V131.4H313.075V162.225ZM370.827 130.5C377.427 130.5 382.852 131.85 387.102 134.55C391.352 137.2 393.527 141.15 393.627 146.4V147.3H378.102V147C378.102 145.5 377.552 144.25 376.452 143.25C375.352 142.25 373.677 141.75 371.427 141.75C369.227 141.75 367.527 142.075 366.327 142.725C365.177 143.375 364.602 144.175 364.602 145.125C364.602 146.475 365.402 147.475 367.002 148.125C368.602 148.775 371.177 149.45 374.727 150.15C378.877 151 382.277 151.9 384.927 152.85C387.627 153.75 389.977 155.25 391.977 157.35C393.977 159.45 395.002 162.3 395.052 165.9C395.052 172 392.977 176.525 388.827 179.475C384.727 182.425 379.227 183.9 372.327 183.9C364.277 183.9 358.002 182.55 353.502 179.85C349.052 177.15 346.827 172.375 346.827 165.525H362.502C362.502 168.125 363.177 169.875 364.527 170.775C365.877 171.625 367.977 172.05 370.827 172.05C372.927 172.05 374.652 171.825 376.002 171.375C377.402 170.925 378.102 170 378.102 168.6C378.102 167.35 377.327 166.425 375.777 165.825C374.277 165.175 371.802 164.5 368.352 163.8C364.152 162.9 360.677 161.975 357.927 161.025C355.177 160.025 352.777 158.4 350.727 156.15C348.677 153.9 347.652 150.85 347.652 147C347.652 141.35 349.827 137.2 354.177 134.55C358.577 131.85 364.127 130.5 370.827 130.5Z" fill="white"/>
<g clip-path="url(#clip1_8_2)">
<path d="M507.225 130.5C513.825 130.5 519.25 131.85 523.5 134.55C527.75 137.2 529.925 141.15 530.025 146.4V147.3H514.5V147C514.5 145.5 513.95 144.25 512.85 143.25C511.75 142.25 510.075 141.75 507.825 141.75C505.625 141.75 503.925 142.075 502.725 142.725C501.575 143.375 501 144.175 501 145.125C501 146.475 501.8 147.475 503.4 148.125C505 148.775 507.575 149.45 511.125 150.15C515.275 151 518.675 151.9 521.325 152.85C524.025 153.75 526.375 155.25 528.375 157.35C530.375 159.45 531.4 162.3 531.45 165.9C531.45 172 529.375 176.525 525.225 179.475C521.125 182.425 515.625 183.9 508.725 183.9C500.675 183.9 494.4 182.55 489.9 179.85C485.45 177.15 483.225 172.375 483.225 165.525H498.9C498.9 168.125 499.575 169.875 500.925 170.775C502.275 171.625 504.375 172.05 507.225 172.05C509.325 172.05 511.05 171.825 512.4 171.375C513.8 170.925 514.5 170 514.5 168.6C514.5 167.35 513.725 166.425 512.175 165.825C510.675 165.175 508.2 164.5 504.75 163.8C500.55 162.9 497.075 161.975 494.325 161.025C491.575 160.025 489.175 158.4 487.125 156.15C485.075 153.9 484.05 150.85 484.05 147C484.05 141.35 486.225 137.2 490.575 134.55C494.975 131.85 500.525 130.5 507.225 130.5ZM564.652 131.4H609.277V143.775H581.227V150.9H605.227V162.75H581.227V170.625H609.802V183H564.652V131.4ZM673.453 144.6V183H656.878V144.6H639.928V131.4H690.328V144.6H673.453ZM774.23 162.225C774.23 169.275 772.005 174.65 767.555 178.35C763.105 182.05 756.78 183.9 748.58 183.9C740.38 183.9 734.03 182.05 729.53 178.35C725.08 174.65 722.855 169.275 722.855 162.225V131.4H739.43V162C739.43 164.9 740.205 167.225 741.755 168.975C743.305 170.675 745.555 171.525 748.505 171.525C751.455 171.525 753.705 170.65 755.255 168.9C756.855 167.15 757.655 164.85 757.655 162V131.4H774.23V162.225ZM839.256 131.4C842.456 131.4 845.306 132.15 847.806 133.65C850.306 135.1 852.256 137.125 853.656 139.725C855.056 142.275 855.756 145.15 855.756 148.35V149.325C855.756 152.525 855.056 155.425 853.656 158.025C852.256 160.625 850.306 162.675 847.806 164.175C845.306 165.625 842.456 166.35 839.256 166.35H826.881V183H810.306V131.4H839.256ZM826.881 154.275H833.706C835.456 154.275 836.756 153.825 837.606 152.925C838.506 152.025 838.956 150.8 838.956 149.25V148.65C838.956 147.05 838.506 145.825 837.606 144.975C836.756 144.075 835.456 143.625 833.706 143.625H826.881V154.275Z" fill="white"/>
</g>
</g>
<defs>
<clipPath id="clip0_8_2">
<rect width="859" height="317" fill="white"/>
</clipPath>
<clipPath id="clip1_8_2">
<rect width="379" height="82" fill="white" transform="translate(480 117)"/>
</clipPath>
</defs>
</svg>
