<svg viewBox="0 0 24 24" xmlns="http://www.w3.org/2000/svg"><path d="m12 23c-6.07513225 0-11-4.9248678-11-11 0-6.07513225 4.92486775-11 11-11 6.0751322 0 11 4.92486775 11 11 0 6.0751322-4.9248678 11-11 11zm0-2c4.9705627 0 9-4.0294373 9-9 0-4.97056275-4.0294373-9-9-9-4.97056275 0-9 4.02943725-9 9 0 4.9705627 4.02943725 9 9 9zm1.0036109-7.0016536h.9993435v2h-4v-2h1v-2h-1v-2.00000001h3.0006565zm-1.0032826-5.00000001c-.5524661 0-1.0003283-.44771525-1.0003283-1s.4478622-1 1.0003283-1c.552466 0 1.0003282.44771525 1.0003282 1s-.4478622 1-1.0003282 1z" fill-rule="evenodd"/></svg>