<svg width="41" height="41" viewBox="0 0 41 41" fill="none" xmlns="http://www.w3.org/2000/svg">
<path fill-rule="evenodd" clip-rule="evenodd" d="M26.6777 40.5H40.011V27.1667H36.6777V37.1667H26.6777V40.5ZM3.34432 27.1667V37.1667H13.3443V40.5H0.0109863V27.1667H3.34432ZM13.3443 3.83333H3.34432V13.8333H0.0109863V0.5H13.3443V3.83333ZM26.6777 3.83333V0.5H40.011V13.8333H36.6777V3.83333H26.6777Z" fill="white"/>
<path fill-rule="evenodd" clip-rule="evenodd" d="M20.011 30.5C25.5338 30.5 30.011 26.0228 30.011 20.5C30.011 14.9772 25.5338 10.5 20.011 10.5C14.4881 10.5 10.011 14.9772 10.011 20.5C10.011 26.0228 14.4881 30.5 20.011 30.5ZM20.011 27.1667C23.6929 27.1667 26.6777 24.1819 26.6777 20.5C26.6777 16.8181 23.6929 13.8333 20.011 13.8333C16.3291 13.8333 13.3443 16.8181 13.3443 20.5C13.3443 24.1819 16.3291 27.1667 20.011 27.1667Z" fill="white"/>
</svg>
