<svg viewBox="0 0 400 99" fill="none" xmlns="http://www.w3.org/2000/svg">
<path d="M42.125 75L39.95 67.725H21.875L19.7 75H2.75L21.575 23.4H40.85L59.675 75H42.125ZM25.325 56.175H36.5L31.1 37.8H30.8L25.325 56.175ZM139.875 39.225C139.875 42.375 139.025 45.225 137.325 47.775C135.625 50.325 133.15 52.2 129.9 53.4L141.375 75H122.775L113.625 56.175H107.475V75H90.8996V23.4H122.475C126.175 23.4 129.325 24.125 131.925 25.575C134.575 26.975 136.55 28.9 137.85 31.35C139.2 33.75 139.875 36.375 139.875 39.225ZM123 39.9C123 38.55 122.55 37.425 121.65 36.525C120.75 35.625 119.65 35.175 118.35 35.175H107.475V44.7H118.35C119.65 44.7 120.75 44.25 121.65 43.35C122.55 42.4 123 41.25 123 39.9ZM200.199 22.5C205.149 22.5 209.599 23.25 213.549 24.75C217.499 26.25 220.624 28.475 222.924 31.425C225.274 34.325 226.449 37.875 226.449 42.075H210.624C210.624 39.925 209.674 38.2 207.774 36.9C205.874 35.55 203.574 34.875 200.874 34.875C196.974 34.875 194.024 35.925 192.024 38.025C190.024 40.075 189.024 43 189.024 46.8V51.6C189.024 55.4 190.024 58.35 192.024 60.45C194.024 62.5 196.974 63.525 200.874 63.525C203.574 63.525 205.874 62.9 207.774 61.65C209.674 60.35 210.624 58.7 210.624 56.7H198.924V46.2H226.449V75H217.899L216.249 69.9C211.549 73.9 205.399 75.9 197.799 75.9C189.249 75.9 182.824 73.675 178.524 69.225C174.224 64.725 172.074 58.05 172.074 49.2C172.074 40.45 174.499 33.825 179.349 29.325C184.249 24.775 191.199 22.5 200.199 22.5ZM313.075 54.225C313.075 61.275 310.85 66.65 306.4 70.35C301.95 74.05 295.625 75.9 287.425 75.9C279.225 75.9 272.875 74.05 268.375 70.35C263.925 66.65 261.7 61.275 261.7 54.225V23.4H278.275V54C278.275 56.9 279.05 59.225 280.6 60.975C282.15 62.675 284.4 63.525 287.35 63.525C290.3 63.525 292.55 62.65 294.1 60.9C295.7 59.15 296.5 56.85 296.5 54V23.4H313.075V54.225ZM370.827 22.5C377.427 22.5 382.852 23.85 387.102 26.55C391.352 29.2 393.527 33.15 393.627 38.4V39.3H378.102V39C378.102 37.5 377.552 36.25 376.452 35.25C375.352 34.25 373.677 33.75 371.427 33.75C369.227 33.75 367.527 34.075 366.327 34.725C365.177 35.375 364.602 36.175 364.602 37.125C364.602 38.475 365.402 39.475 367.002 40.125C368.602 40.775 371.177 41.45 374.727 42.15C378.877 43 382.277 43.9 384.927 44.85C387.627 45.75 389.977 47.25 391.977 49.35C393.977 51.45 395.002 54.3 395.052 57.9C395.052 64 392.977 68.525 388.827 71.475C384.727 74.425 379.227 75.9 372.327 75.9C364.277 75.9 358.002 74.55 353.502 71.85C349.052 69.15 346.827 64.375 346.827 57.525H362.502C362.502 60.125 363.177 61.875 364.527 62.775C365.877 63.625 367.977 64.05 370.827 64.05C372.927 64.05 374.652 63.825 376.002 63.375C377.402 62.925 378.102 62 378.102 60.6C378.102 59.35 377.327 58.425 375.777 57.825C374.277 57.175 371.802 56.5 368.352 55.8C364.152 54.9 360.677 53.975 357.927 53.025C355.177 52.025 352.777 50.4 350.727 48.15C348.677 45.9 347.652 42.85 347.652 39C347.652 33.35 349.827 29.2 354.177 26.55C358.577 23.85 364.127 22.5 370.827 22.5Z" fill="black"/>
</svg>
