<svg viewBox="0 0 234 99" fill="none" xmlns="http://www.w3.org/2000/svg">
<g filter="url(#filter0_d_1_5)">
<path d="M54.05 60L53.18 57.09H45.95L45.08 60H38.3L45.83 39.36H53.54L61.07 60H54.05ZM47.33 52.47H51.8L49.64 45.12H49.52L47.33 52.47ZM93.1498 45.69C93.1498 46.95 92.8098 48.09 92.1298 49.11C91.4498 50.13 90.4598 50.88 89.1598 51.36L93.7498 60H86.3098L82.6498 52.47H80.1898V60H73.5598V39.36H86.1898C87.6698 39.36 88.9298 39.65 89.9698 40.23C91.0298 40.79 91.8198 41.56 92.3398 42.54C92.8798 43.5 93.1498 44.55 93.1498 45.69ZM86.3998 45.96C86.3998 45.42 86.2198 44.97 85.8598 44.61C85.4998 44.25 85.0598 44.07 84.5398 44.07H80.1898V47.88H84.5398C85.0598 47.88 85.4998 47.7 85.8598 47.34C86.2198 46.96 86.3998 46.5 86.3998 45.96ZM117.28 39C119.26 39 121.04 39.3 122.62 39.9C124.2 40.5 125.45 41.39 126.37 42.57C127.31 43.73 127.78 45.15 127.78 46.83H121.45C121.45 45.97 121.07 45.28 120.31 44.76C119.55 44.22 118.63 43.95 117.55 43.95C115.99 43.95 114.81 44.37 114.01 45.21C113.21 46.03 112.81 47.2 112.81 48.72V50.64C112.81 52.16 113.21 53.34 114.01 54.18C114.81 55 115.99 55.41 117.55 55.41C118.63 55.41 119.55 55.16 120.31 54.66C121.07 54.14 121.45 53.48 121.45 52.68H116.77V48.48H127.78V60H124.36L123.7 57.96C121.82 59.56 119.36 60.36 116.32 60.36C112.9 60.36 110.33 59.47 108.61 57.69C106.89 55.89 106.03 53.22 106.03 49.68C106.03 46.18 107 43.53 108.94 41.73C110.9 39.91 113.68 39 117.28 39ZM162.43 51.69C162.43 54.51 161.54 56.66 159.76 58.14C157.98 59.62 155.45 60.36 152.17 60.36C148.89 60.36 146.35 59.62 144.55 58.14C142.77 56.66 141.88 54.51 141.88 51.69V39.36H148.51V51.6C148.51 52.76 148.82 53.69 149.44 54.39C150.06 55.07 150.96 55.41 152.14 55.41C153.32 55.41 154.22 55.06 154.84 54.36C155.48 53.66 155.8 52.74 155.8 51.6V39.36H162.43V51.69ZM185.531 39C188.171 39 190.341 39.54 192.041 40.62C193.741 41.68 194.611 43.26 194.651 45.36V45.72H188.441V45.6C188.441 45 188.221 44.5 187.781 44.1C187.341 43.7 186.671 43.5 185.771 43.5C184.891 43.5 184.211 43.63 183.731 43.89C183.271 44.15 183.041 44.47 183.041 44.85C183.041 45.39 183.361 45.79 184.001 46.05C184.641 46.31 185.671 46.58 187.091 46.86C188.751 47.2 190.111 47.56 191.171 47.94C192.251 48.3 193.191 48.9 193.991 49.74C194.791 50.58 195.201 51.72 195.221 53.16C195.221 55.6 194.391 57.41 192.731 58.59C191.091 59.77 188.891 60.36 186.131 60.36C182.911 60.36 180.401 59.82 178.601 58.74C176.821 57.66 175.931 55.75 175.931 53.01H182.201C182.201 54.05 182.471 54.75 183.011 55.11C183.551 55.45 184.391 55.62 185.531 55.62C186.371 55.62 187.061 55.53 187.601 55.35C188.161 55.17 188.441 54.8 188.441 54.24C188.441 53.74 188.131 53.37 187.511 53.13C186.911 52.87 185.921 52.6 184.541 52.32C182.861 51.96 181.471 51.59 180.371 51.21C179.271 50.81 178.311 50.16 177.491 49.26C176.671 48.36 176.261 47.14 176.261 45.6C176.261 43.34 177.131 41.68 178.871 40.62C180.631 39.54 182.851 39 185.531 39Z" fill="white"/>
</g>

</svg>
