<?xml version="1.0" encoding="utf-8"?>
<svg viewBox="0 0 24 24" xmlns="http://www.w3.org/2000/svg">
  <path d="M.221 16.268a15.064 15.064 0 0 0 1.789 1.9C2.008 18.111 2 18.057 2 18a5.029 5.029 0 0 1 3.233-4.678 1 1 0 0 0 .175-1.784A2.968 2.968 0 0 1 4 9a2.988 2.988 0 0 1 5.022-2.2 5.951 5.951 0 0 1 2.022-.715 4.994 4.994 0 1 0-7.913 6.085 7.07 7.07 0 0 0-2.91 4.098zM23.779 16.268a7.07 7.07 0 0 0-2.91-4.1 4.994 4.994 0 1 0-7.913-6.086 5.949 5.949 0 0 1 2.022.715 2.993 2.993 0 1 1 3.614 4.74 1 1 0 0 0 .175 1.784A5.029 5.029 0 0 1 22 18c0 .057-.008.111-.01.167a15.065 15.065 0 0 0 1.789-1.899z"/>
  <path d="M18.954 20.284a7.051 7.051 0 0 0-3.085-5.114A4.956 4.956 0 0 0 17 12a5 5 0 1 0-8.869 3.17 7.051 7.051 0 0 0-3.085 5.114 14.923 14.923 0 0 0 1.968.849C7.012 21.088 7 21.046 7 21a5.031 5.031 0 0 1 3.233-4.678 1 1 0 0 0 .175-1.785A2.964 2.964 0 0 1 9 12a3 3 0 1 1 6 0 2.964 2.964 0 0 1-1.408 2.537 1 1 0 0 0 .175 1.785A5.031 5.031 0 0 1 17 21c0 .046-.012.088-.013.133a14.919 14.919 0 0 0 1.967-.849z"/>
  <path d="m0 0h24v24h-24z" opacity="0" transform="matrix(1, 0, 0, 1, 1.932752, -1.228725)" style=""/>
  <g>
    <path d="M 12 0.555 C 11.917 0.553 11.836 0.587 11.777 0.645 L 9.344 3.081 C 8.709 3.722 8.709 4.756 9.344 5.398 C 9.985 6.036 11.022 6.036 11.661 5.398 L 12 5.06 L 12.338 5.398 C 12.978 6.036 14.015 6.036 14.655 5.398 C 15.29 4.756 15.29 3.722 14.655 3.081 L 12.222 0.645 C 12.163 0.587 12.082 0.553 12 0.555 Z" style="" transform="matrix(-1, 0, 0, -1, 23.998999, 6.431417)"/>
  </g>
</svg>