<svg width="51" height="45" viewBox="0 0 51 45" fill="none" xmlns="http://www.w3.org/2000/svg">
<path d="M0.741699 33.3498C1.88833 34.8013 3.15877 36.1506 4.53871 37.3824C4.53447 37.2614 4.51749 37.1468 4.51749 37.0258C4.52579 34.8717 5.18565 32.7706 6.41034 30.9985C7.63503 29.2264 9.36723 27.8664 11.3793 27.0971C11.7493 26.9571 12.0729 26.7165 12.3134 26.4023C12.5539 26.0881 12.7019 25.713 12.7405 25.3192C12.7791 24.9255 12.7069 24.5287 12.532 24.1738C12.3571 23.8189 12.0865 23.52 11.7507 23.3107C10.8331 22.7438 10.0764 21.9508 9.55315 21.0076C9.0299 20.0644 8.7576 19.0026 8.76233 17.924C8.7577 16.6875 9.11466 15.4766 9.78928 14.4403C10.4639 13.404 11.4268 12.5876 12.5594 12.0914C13.692 11.5952 14.945 11.441 16.1641 11.6477C17.3832 11.8544 18.5153 12.413 19.4211 13.2547C20.7479 12.4931 22.2021 11.9789 23.7127 11.7372C22.8847 10.5804 21.8323 9.60218 20.6183 8.86072C19.4043 8.11927 18.0535 7.62977 16.6463 7.4214C15.2391 7.21303 13.8044 7.29005 12.4276 7.64787C11.0508 8.00569 9.7601 8.63698 8.63243 9.50414C7.50477 10.3713 6.56319 11.4566 5.86381 12.6953C5.16443 13.934 4.72156 15.3009 4.56157 16.7144C4.40159 18.1279 4.52777 19.5591 4.9326 20.9229C5.33743 22.2866 6.01262 23.5548 6.91795 24.6521C3.86337 26.697 1.66563 29.7919 0.741699 33.3498ZM50.7417 33.3498C49.8187 29.7904 47.6209 26.6938 44.5655 24.6479C45.4678 23.5503 46.1403 22.2825 46.5429 20.9198C46.9455 19.5571 47.07 18.1274 46.909 16.7157C46.7481 15.3039 46.3049 13.9389 45.6058 12.7019C44.9068 11.4648 43.9662 10.381 42.8399 9.51472C41.7135 8.64847 40.4246 8.01751 39.0495 7.65937C37.6745 7.30122 36.2415 7.22319 34.8358 7.42993C33.43 7.63666 32.0801 8.12394 30.8664 8.86278C29.6527 9.60162 28.6 10.577 27.7707 11.7308C29.2814 11.9725 30.7355 12.4867 32.0623 13.2483C32.7126 12.6502 33.4805 12.1944 34.3169 11.9099C35.1534 11.6254 36.04 11.5185 36.9201 11.596C37.8002 11.6736 38.6544 11.9339 39.4282 12.3603C40.202 12.7867 40.8784 13.3698 41.4141 14.0724C41.9497 14.775 42.333 15.5816 42.5393 16.4406C42.7456 17.2997 42.7704 18.1924 42.6122 19.0616C42.4539 19.9308 42.1161 20.7575 41.6203 21.4888C41.1245 22.2201 40.4816 22.8399 39.7327 23.3086C39.3969 23.5179 39.1263 23.8168 38.9514 24.1717C38.7765 24.5266 38.7043 24.9233 38.7429 25.3171C38.7815 25.7109 38.9294 26.086 39.17 26.4002C39.4105 26.7143 39.7341 26.955 40.1041 27.095C42.1165 27.8644 43.8489 29.2248 45.0737 30.9973C46.2984 32.7698 46.958 34.8714 46.9659 37.0258C46.9659 37.1468 46.9489 37.2614 46.9447 37.3803C48.3245 36.1491 49.595 34.8005 50.7417 33.3498Z" fill="white"/>
<path d="M40.5011 41.8734C40.2705 39.6953 39.5646 37.5944 38.4332 35.7189C37.3018 33.8434 35.7726 32.2392 33.9534 31.0194C35.5139 29.1254 36.363 26.7453 36.3538 24.2913C36.3529 22.591 35.9434 20.9158 35.1598 19.4068C34.3762 17.8978 33.2415 16.5992 31.8513 15.6203C30.461 14.6414 28.8559 14.011 27.1711 13.7819C25.4863 13.5529 23.7711 13.7321 22.17 14.3044C20.5689 14.8766 19.1287 15.8253 17.9708 17.0703C16.8129 18.3154 15.9711 19.8205 15.5163 21.4589C15.0615 23.0972 15.007 24.8209 15.3575 26.4847C15.708 28.1484 16.4531 29.7037 17.5301 31.0194C15.7109 32.2392 14.1817 33.8434 13.0503 35.7189C11.9189 37.5944 11.213 39.6953 10.9824 41.8734C12.3297 42.5734 13.7256 43.1756 15.1593 43.6754C15.1551 43.5799 15.1296 43.4907 15.1296 43.3931C15.1385 41.2392 15.7986 39.1383 17.0232 37.3663C18.2478 35.5943 19.9797 34.2342 21.9914 33.4644C22.362 33.3246 22.6861 33.084 22.927 32.7696C23.168 32.4553 23.3161 32.0798 23.3548 31.6856C23.3934 31.2914 23.321 30.8943 23.1457 30.5391C22.9704 30.184 22.6992 29.8849 22.3628 29.6759C21.445 29.1098 20.688 28.3172 20.1647 27.3743C19.6414 26.4313 19.3693 25.3697 19.3745 24.2913C19.3745 22.6026 20.0453 20.983 21.2394 19.789C22.4335 18.5949 24.053 17.924 25.7417 17.924C27.4304 17.924 29.05 18.5949 30.2441 19.789C31.4382 20.983 32.109 22.6026 32.109 24.2913C32.1142 25.3697 31.8421 26.4313 31.3187 27.3743C30.7954 28.3172 30.0385 29.1098 29.1206 29.6759C28.7842 29.8849 28.5131 30.184 28.3378 30.5391C28.1625 30.8943 28.0901 31.2914 28.1287 31.6856C28.1673 32.0798 28.3155 32.4553 28.5564 32.7696C28.7974 33.084 29.1215 33.3246 29.4921 33.4644C31.5038 34.2342 33.2356 35.5943 34.4603 37.3663C35.6849 39.1383 36.345 41.2392 36.3538 43.3931C36.3538 43.4907 36.3284 43.5799 36.3263 43.6754C37.7592 43.1755 39.1544 42.5734 40.5011 41.8734Z" fill="white"/>
<path d="M25.7395 11.2945C25.9157 11.2987 26.0876 11.2265 26.2128 11.1034L31.3766 5.93323C32.7244 4.57275 32.7244 2.37817 31.3766 1.01558C30.0162 -0.338528 27.8152 -0.338528 26.459 1.01558L25.7395 1.73295L25.0221 1.01558C23.6638 -0.338528 21.4628 -0.338528 20.1045 1.01558C18.7567 2.37817 18.7567 4.57275 20.1045 5.93323L25.2683 11.1034C25.3935 11.2265 25.5655 11.2987 25.7395 11.2945Z" fill="white"/>
</svg>
