<svg viewBox="0 0 400 400" fill="none" xmlns="http://www.w3.org/2000/svg">
<path d="M30 277.99C37.8044 287.869 46.4514 297.053 55.8437 305.437C55.8148 304.614 55.6993 303.833 55.6993 303.01C55.7558 288.349 60.247 274.048 68.5826 261.986C76.9183 249.925 88.7082 240.668 102.403 235.432C104.922 234.479 107.124 232.841 108.761 230.703C110.398 228.565 111.405 226.011 111.668 223.331C111.931 220.651 111.439 217.951 110.249 215.535C109.058 213.12 107.216 211.085 104.931 209.661C98.6853 205.802 93.5351 200.404 89.9737 193.985C86.4123 187.565 84.5589 180.338 84.5911 172.997C84.5596 164.581 86.9891 156.339 91.5809 149.286C96.1726 142.232 102.726 136.675 110.435 133.298C118.144 129.921 126.672 128.871 134.97 130.278C143.268 131.685 150.973 135.487 157.138 141.216C166.169 136.032 176.066 132.533 186.348 130.887C180.713 123.014 173.55 116.356 165.287 111.309C157.024 106.262 147.83 102.931 138.252 101.513C128.674 100.094 118.909 100.619 109.538 103.054C100.167 105.489 91.3822 109.786 83.707 115.688C76.0317 121.591 69.623 128.977 64.8628 137.409C60.1026 145.84 57.0882 155.143 55.9993 164.764C54.9104 174.385 55.7693 184.126 58.5247 193.408C61.2801 202.69 65.8756 211.322 72.0376 218.79C51.2471 232.709 36.2886 253.774 30 277.99ZM370.317 277.99C364.034 253.763 349.075 232.687 328.279 218.762C334.421 211.291 338.998 202.662 341.738 193.387C344.479 184.112 345.326 174.381 344.23 164.772C343.135 155.164 340.118 145.873 335.36 137.453C330.602 129.034 324.2 121.656 316.534 115.76C308.868 109.864 300.095 105.57 290.736 103.132C281.377 100.695 271.624 100.164 262.055 101.571C252.487 102.978 243.3 106.294 235.039 111.323C226.778 116.352 219.613 122.99 213.969 130.844C224.251 132.489 234.148 135.988 243.178 141.173C247.604 137.102 252.831 133.999 258.524 132.063C264.217 130.126 270.252 129.399 276.242 129.927C282.232 130.454 288.046 132.226 293.313 135.128C298.58 138.03 303.184 141.999 306.83 146.781C310.476 151.563 313.084 157.053 314.488 162.901C315.892 168.748 316.061 174.824 314.984 180.74C313.907 186.656 311.608 192.283 308.234 197.26C304.859 202.237 300.483 206.456 295.386 209.646C293.1 211.07 291.258 213.105 290.068 215.521C288.877 217.936 288.386 220.637 288.649 223.317C288.912 225.997 289.919 228.55 291.556 230.688C293.193 232.827 295.395 234.465 297.914 235.418C311.611 240.654 323.402 249.914 331.738 261.978C340.074 274.042 344.564 288.346 344.617 303.01C344.617 303.833 344.502 304.614 344.473 305.423C353.865 297.043 362.512 287.864 370.317 277.99Z" fill="black"/>
<path d="M300.615 336.005C299.046 321.18 294.241 306.88 286.541 294.115C278.84 281.35 268.432 270.431 256.05 262.128C266.671 249.237 272.45 233.038 272.388 216.335C272.381 204.762 269.594 193.36 264.261 183.089C258.927 172.819 251.204 163.98 241.742 157.317C232.279 150.655 221.354 146.363 209.887 144.804C198.42 143.246 186.746 144.465 175.848 148.36C164.95 152.255 155.148 158.712 147.267 167.186C139.386 175.661 133.656 185.905 130.561 197.056C127.465 208.207 127.094 219.939 129.48 231.263C131.865 242.588 136.937 253.173 144.267 262.128C131.885 270.431 121.477 281.35 113.776 294.115C106.076 306.88 101.271 321.18 99.7015 336.005C108.872 340.769 118.373 344.868 128.131 348.269C128.102 347.619 127.929 347.012 127.929 346.348C127.989 331.687 132.482 317.388 140.817 305.327C149.152 293.267 160.94 284.009 174.632 278.77C177.155 277.819 179.361 276.181 181.001 274.041C182.64 271.901 183.649 269.346 183.912 266.663C184.175 263.98 183.682 261.277 182.489 258.859C181.296 256.442 179.45 254.407 177.16 252.984C170.913 249.131 165.761 243.736 162.199 237.318C158.638 230.9 156.785 223.675 156.821 216.335C156.821 204.841 161.387 193.818 169.514 185.69C177.641 177.563 188.664 172.997 200.158 172.997C211.652 172.997 222.675 177.563 230.803 185.69C238.93 193.818 243.496 204.841 243.496 216.335C243.531 223.675 241.679 230.9 238.117 237.318C234.555 243.736 229.404 249.131 223.156 252.984C220.867 254.407 219.021 256.442 217.828 258.859C216.635 261.277 216.142 263.98 216.405 266.663C216.668 269.346 217.676 271.901 219.316 274.041C220.956 276.181 223.162 277.819 225.684 278.77C239.377 284.009 251.164 293.267 259.499 305.327C267.835 317.388 272.327 331.687 272.388 346.348C272.388 347.012 272.215 347.619 272.2 348.269C281.953 344.867 291.45 340.768 300.615 336.005Z" fill="black"/>
<path d="M200.144 127.874C201.343 127.903 202.513 127.412 203.365 126.574L238.512 91.3835C247.685 82.1237 247.685 67.1866 238.512 57.9124C229.252 48.6959 214.272 48.6959 205.041 57.9124L200.144 62.7951L195.261 57.9124C186.016 48.6959 171.035 48.6959 161.79 57.9124C152.617 67.1866 152.617 82.1237 161.79 91.3835L196.937 126.574C197.789 127.412 198.959 127.903 200.144 127.874Z" fill="black"/>
</svg>
