<svg viewBox="0 0 400 400" fill="none" xmlns="http://www.w3.org/2000/svg">
<path fill-rule="evenodd" clip-rule="evenodd" d="M220.026 251.154L216.5 310.5H176.5V220.5C176.5 214.977 180.971 210.5 186.494 210.5H215.5C216.432 210.5 221.967 209.588 222.464 209.506C259.305 198.527 285 165.504 285 128.184C285 82.351 246.247 43 195.69 43C166.398 43 146.334 50.5758 134.299 60.6899C125.212 68.3269 118.057 79.5702 115.771 96.7514L75.0135 110.971C75.0045 110.31 75 109.649 75 108.989C75 39.8518 124.274 3 195.69 3C267.106 3 325 59.0466 325 128.184C325 189.267 279.808 240.133 220.026 251.154Z" fill="black"/>
<circle cx="196" cy="357" r="40" fill="black"/>
</svg>
