<svg viewBox="0 0 600 100" fill="none" xmlns="http://www.w3.org/2000/svg">
<path d="M35.25 36.6V75H18.675V36.6H1.725V23.4H52.125V36.6H35.25ZM85.4016 75V23.4H101.977V75H85.4016ZM183.103 75V56.4C183.103 54.1 183.178 51.75 183.328 49.35C183.528 46.9 183.728 44.85 183.928 43.2C184.128 41.55 184.253 40.5 184.303 40.05H184.003L174.478 75H161.503L151.903 40.125H151.603C151.653 40.575 151.778 41.625 151.978 43.275C152.228 44.875 152.453 46.9 152.653 49.35C152.853 51.75 152.953 54.1 152.953 56.4V75H137.728V23.4H161.128L168.928 53.175H169.228L176.953 23.4H199.528V75H183.103ZM234.578 23.4H279.203V35.775H251.153V42.9H275.153V54.75H251.153V62.625H279.728V75H234.578V23.4ZM313.68 23.4H330.255V61.8H356.73V75H313.68V23.4ZM389.43 75V23.4H406.005V75H389.43ZM479.706 75L458.031 49.95V75H442.806V23.4H457.281L478.956 48.825V23.4H494.181V75H479.706ZM530.257 23.4H574.882V35.775H546.832V42.9H570.832V54.75H546.832V62.625H575.407V75H530.257V23.4Z" fill="black"/>
</svg>
